<svg xmlns="http://www.w3.org/2000/svg"  viewBox="0 0 64 64" width="64px" height="64px" fill-rule="evenodd" clip-rule="evenodd"><linearGradient id="SVGID_1_" x1="32" x2="32" y1="-699.083" y2="-744.676" gradientTransform="matrix(1 0 0 -1 0 -690)" gradientUnits="userSpaceOnUse"><stop offset="0" stop-color="#1a6dff"/><stop offset="1" stop-color="#c822ff"/></linearGradient><path fill="url(#SVGID_1_)" d="M50,55H14c-2.8,0-5-2.2-5-5V14c0-2.8,2.2-5,5-5h36c2.8,0,5,2.2,5,5v36C55,52.8,52.8,55,50,55z M14,11	c-1.7,0-3,1.3-3,3v36c0,1.7,1.3,3,3,3h36c1.7,0,3-1.3,3-3V14c0-1.7-1.3-3-3-3H14z"/><linearGradient id="SVGID_2_" x1="32" x2="32" y1="18.362" y2="42.629" gradientUnits="userSpaceOnUse"><stop offset="0" stop-color="#6dc7ff"/><stop offset="1" stop-color="#e6abff"/></linearGradient><path fill="url(#SVGID_2_)" fill-rule="evenodd" d="M44.6,32.7l-4.9-0.2c-1.5,0-3.2,0.5-4.5,1.7	c-1.7,1.6-1.9,4.2-1.2,5.9c0.7,1.7,2.7,2.7,4.7,2.3c1.6-0.3,2.4-1.8,2.3-3.1c-0.1-1.1-0.8-1.7-1.6-1.7c-0.8,0-1.1,0.4-1.2,0.8	c-0.1,0.4,0.1,0.7,0.4,0.9c0.5,0.4-0.4,1.6-1.5,0.9c-0.6-0.4-1.1-1.3-1-2.4c0.2-1.5,1.4-2.9,3.6-2.9c2.3,0,3.9,1.4,4.4,3.5	c0.7,2.6-0.7,5.8-3.9,7.5c-3.9,2.1-10.5,1.9-14.1-1.9c-2.1-2.2-2.8-5.1-2.6-7.8c0.1-0.9,0.2-1.8,0.4-2.7c0.1-0.3-0.1-0.6-0.5-0.7	c0,0-0.1,0-0.1,0h-6.1c-0.4,0-0.8-0.3-0.8-0.8c0-0.1,0-0.1,0-0.2l1.9-8.2c0.1-0.5,0.6-0.9,1.1-0.9h6.4c0.3,0,0.6-0.2,0.7-0.5l1-4.7	c0.1-0.5,0.6-0.8,1-0.8h8.8c0.4,0,0.7,0.3,0.7,0.7c0,0.1,0,0.1,0,0.2l-0.9,4.7c0,0.2,0.1,0.4,0.3,0.4c0,0,0.1,0,0.1,0h9.4	c0.4,0,0.7,0.3,0.7,0.8c0,0.1,0,0.1,0,0.2l-2.1,8.2C45.3,32.5,45,32.8,44.6,32.7z" clip-rule="evenodd"/></svg>